<svg style="opacity: 0.6" width="903" height="143" viewBox="0 0 903 143" fill="none" xmlns="http://www.w3.org/2000/svg">
<path fill-rule="evenodd" clip-rule="evenodd" d="M1069.66 7.96892L1087.78 22.1889L1097.91 14.1227L1080.72 0.510986H1079.16H1060.16H1058.61L1041.42 14.1227L1051.55 22.1889L1069.66 7.96892ZM1125.18 51.9347L1102.98 34.2899L1093.19 26.2237L1102.98 18.1575L1125.18 0.512748H1145.74L1113.06 26.2237L1145.74 51.9347H1125.18ZM1097.8 38.4216L1080.72 51.9324H1079.16H1060.16H1058.61L1041.53 38.4216L1051.66 30.3554L1069.66 44.4788L1087.66 30.3554L1097.8 38.4216ZM1048.61 108.11L1026.41 90.4656L1016.61 82.3994L1026.41 74.3332L1048.61 56.6884H1069.16L1036.48 82.3994L1069.16 108.11H1048.61ZM1011.2 78.3645L993.09 64.1446L974.976 78.3645L964.842 70.2983L982.036 56.6867H983.59H1002.59H1004.14L1021.34 70.2983L1011.2 78.3645ZM1004.14 108.108L1021.22 94.5973L1011.09 86.5311L993.09 100.654L975.09 86.5311L964.955 94.5973L982.036 108.108H983.59H1002.59H1004.14ZM949.832 146.641L972.036 164.286H992.59L959.909 138.575L992.59 112.864H972.036L949.832 130.509L940.039 138.575L949.832 146.641ZM916.516 120.32L934.63 134.54L944.764 126.474L927.57 112.862H926.016H907.016H905.463L888.268 126.474L898.403 134.54L916.516 120.32ZM944.651 150.773L927.57 164.284H926.016H907.017H905.462L888.382 150.773L898.516 142.707L916.516 156.83L934.516 142.707L944.651 150.773ZM895.463 220.462L873.258 202.817L863.465 194.751L873.258 186.685L895.463 169.04H916.016L883.336 194.751L916.016 220.462H895.463ZM858.056 190.716L839.942 176.496L821.829 190.716L811.694 182.65L828.889 169.038H830.442H849.442H850.996L868.19 182.65L858.056 190.716ZM850.996 220.459L868.077 206.949L857.942 198.882L839.942 213.006L821.942 198.882L811.808 206.949L828.888 220.459H830.443H849.442H850.996ZM796.684 258.993L818.889 276.637H839.442L806.762 250.926L839.442 225.215H818.889L796.684 242.86L786.891 250.926L796.684 258.993ZM763.369 232.672L781.482 246.892L791.617 238.825L774.422 225.214H772.869H753.869H752.315L735.121 238.825L745.255 246.892L763.369 232.672ZM791.503 263.124L774.423 276.635H772.868H753.869H752.315L735.234 263.124L745.369 255.058L763.369 269.181L781.369 255.058L791.503 263.124ZM742.315 332.813L720.111 315.168L710.318 307.102L720.111 299.036L742.315 281.391H762.869L730.188 307.102L762.869 332.813H742.315ZM704.909 303.067L686.795 288.847L668.681 303.067L658.547 295.001L675.741 281.389H677.295H696.295H697.849L715.043 295.001L704.909 303.067ZM697.849 332.811L714.929 319.3L704.795 311.234L686.795 325.357L668.795 311.234L658.661 319.3L675.741 332.811H677.295H696.294H697.849ZM950.406 34.2899L972.61 51.9347H993.164L960.483 26.2237L993.164 0.512748H972.61L950.406 18.1575L940.613 26.2237L950.406 34.2899ZM917.09 7.9689L935.203 22.1889L945.338 14.1227L928.143 0.510986H926.59H907.59H906.036L888.842 14.1227L898.976 22.1889L917.09 7.9689ZM945.224 38.4216L928.144 51.9324H926.589H907.59H906.036L888.955 38.4216L899.09 30.3554L917.09 44.4788L935.09 30.3554L945.224 38.4216ZM896.036 108.11L873.832 90.4656L864.039 82.3994L873.832 74.3332L896.036 56.6884H916.59L883.909 82.3994L916.59 108.11H896.036ZM858.63 78.3645L840.516 64.1446L822.403 78.3645L812.268 70.2983L829.463 56.6867H831.016H850.016H851.57L868.764 70.2983L858.63 78.3645ZM851.57 108.108L868.651 94.5973L858.516 86.5311L840.516 100.654L822.516 86.5311L812.382 94.5973L829.462 108.108H831.017H850.016H851.57ZM797.258 146.641L819.463 164.286H840.016L807.336 138.575L840.016 112.864H819.463L797.258 130.509L787.465 138.575L797.258 146.641ZM763.942 120.32L782.056 134.54L792.19 126.474L774.996 112.862H773.442H754.442H752.889L735.694 126.474L745.829 134.54L763.942 120.32ZM792.077 150.773L774.996 164.284H773.442H754.443H752.888L735.808 150.773L745.942 142.707L763.942 156.83L781.942 142.707L792.077 150.773ZM742.889 220.462L720.684 202.817L710.891 194.751L720.684 186.685L742.889 169.04H763.442L730.762 194.751L763.442 220.462H742.889ZM705.482 190.716L687.369 176.496L669.255 190.716L659.121 182.65L676.315 169.038H677.869H696.869H698.422L715.617 182.65L705.482 190.716ZM698.423 220.459L715.503 206.949L705.369 198.882L687.369 213.006L669.369 198.882L659.234 206.949L676.315 220.459H677.869H696.868H698.423ZM644.111 258.993L666.315 276.637H686.869L654.188 250.926L686.869 225.215H666.315L644.111 242.86L634.318 250.926L644.111 258.993ZM610.795 232.672L628.909 246.892L639.043 238.825L621.849 225.214H620.295H601.295H599.741L582.547 238.825L592.681 246.892L610.795 232.672ZM638.929 263.124L621.849 276.635H620.294H601.295H599.741L582.661 263.124L592.795 255.058L610.795 269.181L628.795 255.058L638.929 263.124ZM589.741 332.813L567.537 315.168L557.744 307.102L567.537 299.036L589.741 281.391H610.295L577.614 307.102L610.295 332.813H589.741ZM552.335 303.067L534.221 288.847L516.108 303.067L505.973 295.001L523.168 281.389H524.721H543.721H545.275L562.469 295.001L552.335 303.067ZM545.275 332.811L562.356 319.3L552.221 311.234L534.221 325.357L516.221 311.234L506.087 319.3L523.167 332.811H524.722H543.721H545.275ZM797.832 34.2899L820.036 51.9347H840.59L807.909 26.2237L840.59 0.512748H820.036L797.832 18.1575L788.039 26.2237L797.832 34.2899ZM764.516 7.9689L782.63 22.1889L792.764 14.1227L775.57 0.510986H774.016H755.016H753.463L736.268 14.1227L746.403 22.1889L764.516 7.9689ZM792.651 38.4216L775.57 51.9324H774.016H755.017H753.462L736.382 38.4216L746.516 30.3554L764.516 44.4788L782.516 30.3554L792.651 38.4216ZM743.463 108.11L721.258 90.4656L711.465 82.3994L721.258 74.3332L743.463 56.6884H764.016L731.336 82.3994L764.016 108.11H743.463ZM706.056 78.3645L687.942 64.1446L669.829 78.3645L659.694 70.2983L676.889 56.6867H678.442H697.442H698.996L716.19 70.2983L706.056 78.3645ZM698.996 108.108L716.077 94.5973L705.942 86.5311L687.942 100.654L669.942 86.5311L659.808 94.5973L676.888 108.108H678.443H697.442H698.996ZM644.684 146.641L666.889 164.286H687.442L654.762 138.575L687.442 112.864H666.889L644.684 130.509L634.891 138.575L644.684 146.641ZM611.369 120.32L629.482 134.54L639.617 126.474L622.422 112.862H620.869H601.869H600.315L583.121 126.474L593.255 134.54L611.369 120.32ZM639.503 150.773L622.423 164.284H620.868H601.869H600.315L583.234 150.773L593.369 142.707L611.369 156.83L629.369 142.707L639.503 150.773ZM590.315 220.462L568.111 202.817L558.318 194.751L568.111 186.685L590.315 169.04H610.869L578.188 194.751L610.869 220.462H590.315ZM552.909 190.716L534.795 176.496L516.681 190.716L506.547 182.65L523.741 169.038H525.295H544.295H545.849L563.043 182.65L552.909 190.716ZM545.849 220.459L562.929 206.949L552.795 198.882L534.795 213.006L516.795 198.882L506.661 206.949L523.741 220.459H525.295H544.294H545.849ZM491.537 258.993L513.741 276.637H534.295L501.614 250.926L534.295 225.215H513.741L491.537 242.86L481.744 250.926L491.537 258.993ZM458.221 232.672L476.335 246.892L486.469 238.825L469.275 225.214H467.721H448.721H447.168L429.973 238.825L440.108 246.892L458.221 232.672ZM486.356 263.124L469.275 276.635H467.721H448.722H447.167L430.087 263.124L440.221 255.058L458.221 269.181L476.221 255.058L486.356 263.124ZM437.168 332.813L414.963 315.168L405.17 307.102L414.963 299.036L437.168 281.391H457.721L425.041 307.102L457.721 332.813H437.168ZM399.761 303.067L381.647 288.847L363.534 303.067L353.399 295.001L370.594 281.389H372.147H391.147H392.701L409.895 295.001L399.761 303.067ZM392.701 332.811L409.782 319.3L399.647 311.234L381.647 325.357L363.647 311.234L353.513 319.3L370.594 332.811H372.148H391.147H392.701ZM645.258 34.2899L667.463 51.9347H688.016L655.336 26.2237L688.016 0.512748H667.463L645.258 18.1575L635.465 26.2237L645.258 34.2899ZM611.942 7.9689L630.056 22.1889L640.19 14.1227L622.996 0.510986H621.442H602.442H600.889L583.694 14.1227L593.829 22.1889L611.942 7.9689ZM640.077 38.4216L622.996 51.9324H621.442H602.443H600.888L583.808 38.4216L593.942 30.3554L611.942 44.4788L629.942 30.3554L640.077 38.4216ZM590.889 108.11L568.684 90.4656L558.891 82.3994L568.684 74.3332L590.889 56.6884H611.442L578.762 82.3994L611.442 108.11H590.889ZM553.482 78.3645L535.369 64.1446L517.255 78.3645L507.121 70.2983L524.315 56.6867H525.869H544.869H546.422L563.617 70.2983L553.482 78.3645ZM546.423 108.108L563.503 94.5973L553.369 86.5311L535.369 100.654L517.369 86.5311L507.234 94.5973L524.315 108.108H525.869H544.868H546.423ZM492.111 146.641L514.315 164.286H534.869L502.188 138.575L534.869 112.864H514.315L492.111 130.509L482.318 138.575L492.111 146.641ZM458.795 120.32L476.909 134.54L487.043 126.474L469.849 112.862H468.295H449.295H447.741L430.547 126.474L440.681 134.54L458.795 120.32ZM486.929 150.773L469.849 164.284H468.294H449.295H447.741L430.661 150.773L440.795 142.707L458.795 156.83L476.795 142.707L486.929 150.773ZM437.741 220.462L415.537 202.817L405.744 194.751L415.537 186.685L437.741 169.04H458.295L425.614 194.751L458.295 220.462H437.741ZM400.335 190.716L382.221 176.496L364.108 190.716L353.973 182.65L371.168 169.038H372.721H391.721H393.275L410.469 182.65L400.335 190.716ZM393.275 220.459L410.356 206.949L400.221 198.882L382.221 213.006L364.221 198.882L354.087 206.949L371.167 220.459H372.722H391.721H393.275ZM338.963 258.993L361.168 276.637H381.721L349.041 250.926L381.721 225.215H361.168L338.963 242.86L329.17 250.926L338.963 258.993ZM305.647 232.672L323.761 246.892L333.895 238.825L316.701 225.214H315.147H296.147H294.594L277.399 238.825L287.534 246.892L305.647 232.672ZM333.782 263.124L316.701 276.635H315.147H296.148H294.594L277.513 263.124L287.647 255.058L305.647 269.181L323.647 255.058L333.782 263.124ZM284.594 332.813L262.389 315.168L252.597 307.102L262.389 299.036L284.594 281.391H305.147L272.467 307.102L305.147 332.813H284.594ZM247.187 303.067L229.074 288.847L210.96 303.067L200.826 295.001L218.02 281.389H219.574H238.574H240.127L257.322 295.001L247.187 303.067ZM240.128 332.811L257.208 319.3L247.074 311.234L229.074 325.357L211.074 311.234L200.939 319.3L218.02 332.811H219.574H238.573H240.128ZM492.684 34.2899L514.889 51.9347H535.442L502.762 26.2237L535.442 0.512748H514.889L492.684 18.1575L482.892 26.2237L492.684 34.2899ZM459.369 7.96888L477.482 22.1889L487.617 14.1227L470.422 0.510986H468.869H449.869H448.315L431.121 14.1227L441.255 22.1889L459.369 7.96888ZM487.503 38.4216L470.423 51.9324H468.868H449.869H448.315L431.234 38.4216L441.369 30.3554L459.369 44.4788L477.369 30.3554L487.503 38.4216ZM438.315 108.11L416.111 90.4656L406.318 82.3994L416.111 74.3332L438.315 56.6884H458.869L426.188 82.3994L458.869 108.11H438.315ZM400.909 78.3645L382.795 64.1446L364.681 78.3645L354.547 70.2983L371.741 56.6867H373.295H392.295H393.849L411.043 70.2983L400.909 78.3645ZM393.849 108.108L410.929 94.5973L400.795 86.5311L382.795 100.654L364.795 86.5311L354.661 94.5973L371.741 108.108H373.295H392.294H393.849ZM339.537 146.641L361.741 164.286H382.295L349.614 138.575L382.295 112.864H361.741L339.537 130.509L329.744 138.575L339.537 146.641ZM306.221 120.32L324.335 134.54L334.469 126.474L317.275 112.862H315.721H296.721H295.168L277.973 126.474L288.108 134.54L306.221 120.32ZM334.356 150.773L317.275 164.284H315.721H296.722H295.167L278.087 150.773L288.221 142.707L306.221 156.83L324.221 142.707L334.356 150.773ZM285.168 220.462L262.963 202.817L253.17 194.751L262.963 186.685L285.168 169.04H305.721L273.041 194.751L305.721 220.462H285.168ZM247.761 190.716L229.647 176.496L211.534 190.716L201.399 182.65L218.594 169.038H220.147H239.147H240.701L257.895 182.65L247.761 190.716ZM240.701 220.459L257.782 206.949L247.647 198.882L229.647 213.006L211.647 198.882L201.513 206.949L218.594 220.459H220.148H239.147H240.701ZM186.389 258.993L208.594 276.637H229.147L196.467 250.926L229.147 225.215H208.594L186.389 242.86L176.597 250.926L186.389 258.993ZM153.074 232.672L171.187 246.892L181.322 238.825L164.127 225.214H162.574H143.574H142.02L124.826 238.825L134.96 246.892L153.074 232.672ZM181.208 263.124L164.128 276.635H162.573H143.574H142.02L124.939 263.124L135.074 255.058L153.074 269.181L171.074 255.058L181.208 263.124ZM132.02 332.813L109.816 315.168L100.023 307.102L109.816 299.036L132.02 281.391H152.574L119.893 307.102L152.574 332.813H132.02ZM94.6136 303.067L76.5 288.847L58.3864 303.067L48.252 295.001L65.4464 281.389H67H86H87.5536L104.748 295.001L94.6136 303.067ZM87.5539 332.811L104.634 319.3L94.5 311.234L76.5 325.357L58.5 311.234L48.3656 319.3L65.4461 332.811H67.0005H85.9995H87.5539ZM1036.35 34.2899L1014.14 51.9347H993.59L1026.27 26.2237L993.59 0.512748H1014.14L1036.35 18.1575L1046.14 26.2237L1036.35 34.2899ZM937.57 108.11L959.774 90.4656L969.567 82.3994L959.774 74.3332L937.57 56.6884H917.016L949.697 82.3994L917.016 108.11H937.57ZM883.2 146.641L860.996 164.286H840.442L873.123 138.575L840.442 112.864H860.996L883.2 130.509L892.993 138.575L883.2 146.641ZM784.422 220.462L806.627 202.817L816.42 194.751L806.627 186.685L784.422 169.04H763.869L796.549 194.751L763.869 220.462H784.422ZM730.053 258.993L707.848 276.637H687.295L719.976 250.926L687.295 225.215H707.848L730.053 242.86L739.846 250.926L730.053 258.993ZM631.275 332.813L653.479 315.168L663.272 307.102L653.479 299.036L631.275 281.391H610.721L643.402 307.102L610.721 332.813H631.275ZM883.774 34.2899L861.57 51.9347H841.016L873.697 26.2237L841.016 0.512748H861.57L883.774 18.1575L893.567 26.2237L883.774 34.2899ZM784.996 108.11L807.2 90.4656L816.993 82.3994L807.2 74.3332L784.996 56.6884H764.442L797.123 82.3994L764.442 108.11H784.996ZM730.627 146.641L708.422 164.286H687.869L720.549 138.575L687.869 112.864H708.422L730.627 130.509L740.42 138.575L730.627 146.641ZM631.848 220.462L654.053 202.817L663.846 194.751L654.053 186.685L631.848 169.04H611.295L643.976 194.751L611.295 220.462H631.848ZM577.479 258.993L555.275 276.637H534.721L567.402 250.926L534.721 225.215H555.275L577.479 242.86L587.272 250.926L577.479 258.993ZM478.701 332.813L500.906 315.168L510.698 307.102L500.906 299.036L478.701 281.391H458.147L490.828 307.102L458.147 332.813H478.701ZM731.2 34.2899L708.996 51.9347H688.442L721.123 26.2237L688.442 0.512748H708.996L731.2 18.1575L740.993 26.2237L731.2 34.2899ZM632.422 108.11L654.627 90.4656L664.42 82.3994L654.627 74.3332L632.422 56.6884H611.869L644.549 82.3994L611.869 108.11H632.422ZM578.053 146.641L555.848 164.286H535.295L567.976 138.575L535.295 112.864H555.848L578.053 130.509L587.846 138.575L578.053 146.641ZM479.275 220.462L501.479 202.817L511.272 194.751L501.479 186.685L479.275 169.04H458.721L491.402 194.751L458.721 220.462H479.275ZM424.906 258.993L402.701 276.637H382.147L414.828 250.926L382.147 225.215H402.701L424.906 242.86L434.698 250.926L424.906 258.993ZM326.127 332.813L348.332 315.168L358.125 307.102L348.332 299.036L326.127 281.391H305.574L338.254 307.102L305.574 332.813H326.127ZM578.627 34.2899L556.422 51.9347H535.869L568.549 26.2237L535.869 0.512748H556.422L578.627 18.1575L588.42 26.2237L578.627 34.2899ZM479.848 108.11L502.053 90.4656L511.846 82.3994L502.053 74.3332L479.848 56.6884H459.295L491.976 82.3994L459.295 108.11H479.848ZM425.479 146.641L403.275 164.286H382.721L415.402 138.575L382.721 112.864H403.275L425.479 130.509L435.272 138.575L425.479 146.641ZM326.701 220.462L348.906 202.817L358.698 194.751L348.906 186.685L326.701 169.04H306.147L338.828 194.751L306.147 220.462H326.701ZM272.332 258.993L250.127 276.637H229.574L262.254 250.926L229.574 225.215H250.127L272.332 242.86L282.125 250.926L272.332 258.993ZM173.553 332.813L195.758 315.168L205.551 307.102L195.758 299.036L173.553 281.391H153L185.681 307.102L153 332.813H173.553ZM426.053 34.2899L403.848 51.9347H383.295L415.976 26.2237L383.295 0.512748H403.848L426.053 18.1575L435.846 26.2237L426.053 34.2899ZM327.275 108.11L349.479 90.4656L359.272 82.3994L349.479 74.3332L327.275 56.6884H306.721L339.402 82.3994L306.721 108.11H327.275ZM272.906 146.641L250.701 164.286H230.147L262.828 138.575L230.147 112.864H250.701L272.906 130.509L282.698 138.575L272.906 146.641ZM174.127 220.462L196.332 202.817L206.125 194.751L196.332 186.685L174.127 169.04H153.574L186.254 194.751L153.574 220.462H174.127ZM119.758 258.993L97.5535 276.637H77L109.681 250.926L77 225.215H97.5535L119.758 242.86L129.551 250.926L119.758 258.993ZM20.9797 332.813L43.1843 315.168L52.9771 307.102L43.1843 299.036L20.9797 281.391H0.42627L33.1069 307.102L0.42627 332.813H20.9797Z" fill="url(#paint0_linear_2968_3299)"/>
<defs>
<linearGradient id="paint0_linear_2968_3299" x1="757" y1="156.691" x2="730.605" y2="-32.7961" gradientUnits="userSpaceOnUse">
<stop stop-color="#01583E"/>
<stop offset="0.515625" stop-color="#08D899"/>
<stop offset="1" stop-color="white"/>
</linearGradient>
</defs>
</svg>
